<svg width="21" height="20" viewBox="0 0 21 20" fill="none" xmlns="http://www.w3.org/2000/svg">
    <g clip-path="url(#clip0_12390_14804)">
        <path d="M15.0816 7.52368C15.2868 7.72895 15.2868 8.06316 15.0816 8.26842L9.81842 13.5316C9.71579 13.6342 9.58158 13.6868 9.44737 13.6868C9.31316 13.6868 9.17895 13.6342 9.07632 13.5316L5.91842 10.3737C5.71316 10.1684 5.71316 9.83421 5.91842 9.62895C6.12368 9.42368 6.45789 9.42368 6.66316 9.62895L9.45 12.4158L14.3421 7.52368C14.5474 7.31842 14.8816 7.31842 15.0868 7.52368H15.0816ZM20.5 10C20.5 15.5132 16.0132 20 10.5 20C4.98684 20 0.5 15.5132 0.5 10C0.5 4.48684 4.98684 0 10.5 0C16.0132 0 20.5 4.48684 20.5 10ZM19.4474 10C19.4474 5.06579 15.4342 1.05263 10.5 1.05263C5.56579 1.05263 1.55263 5.06579 1.55263 10C1.55263 14.9342 5.56579 18.9474 10.5 18.9474C15.4342 18.9474 19.4474 14.9342 19.4474 10Z" fill="#777776"/>
    </g>
    <defs>
        <clipPath id="clip0_12390_14804">
            <rect width="20" height="20" fill="white" transform="translate(0.5)"/>
        </clipPath>
    </defs>
</svg>
