<svg width="21" height="20" viewBox="0 0 21 20" fill="none" xmlns="http://www.w3.org/2000/svg">
    <g clip-path="url(#clip0_12390_14786)">
        <path d="M13.6579 0H7.34211C3.56842 0 0.5 3.06842 0.5 6.84211V13.1579C0.5 16.9316 3.56842 20 7.34211 20H13.6579C17.4316 20 20.5 16.9316 20.5 13.1579V6.84211C20.5 3.06842 17.4316 0 13.6579 0ZM19.4474 13.1579C19.4474 16.35 16.85 18.9474 13.6579 18.9474H7.34211C4.15 18.9474 1.55263 16.35 1.55263 13.1579V6.84211C1.55263 3.65 4.15 1.05263 7.34211 1.05263H13.6579C16.85 1.05263 19.4474 3.65 19.4474 6.84211V13.1579Z" fill="#777776"/>
        <path d="M16.8211 6.04959C16.8211 6.33117 16.5921 6.56012 16.3106 6.56012H8.91055C8.62897 6.56012 8.40002 6.33117 8.40002 6.04959C8.40002 5.76801 8.62897 5.53906 8.91055 5.53906H16.3106C16.5921 5.53906 16.8211 5.76801 16.8211 6.04959Z" fill="#777776"/>
        <path d="M5.50527 7.10526C6.08662 7.10526 6.5579 6.63398 6.5579 6.05263C6.5579 5.47128 6.08662 5 5.50527 5C4.92392 5 4.45264 5.47128 4.45264 6.05263C4.45264 6.63398 4.92392 7.10526 5.50527 7.10526Z" fill="#777776"/>
        <path d="M16.8211 9.9949C16.8211 10.2765 16.5921 10.5054 16.3106 10.5054H8.91055C8.62897 10.5054 8.40002 10.2765 8.40002 9.9949C8.40002 9.71332 8.62897 9.48438 8.91055 9.48438H16.3106C16.5921 9.48438 16.8211 9.71332 16.8211 9.9949Z" fill="#777776"/>
        <path d="M5.50527 11.0506C6.08662 11.0506 6.5579 10.5793 6.5579 9.99794C6.5579 9.41659 6.08662 8.94531 5.50527 8.94531C4.92392 8.94531 4.45264 9.41659 4.45264 9.99794C4.45264 10.5793 4.92392 11.0506 5.50527 11.0506Z" fill="#777776"/>
        <path d="M16.8211 13.948C16.8211 14.2296 16.5921 14.4586 16.3106 14.4586H8.91055C8.62897 14.4586 8.40002 14.2296 8.40002 13.948C8.40002 13.6664 8.62897 13.4375 8.91055 13.4375H16.3106C16.5921 13.4375 16.8211 13.6664 16.8211 13.948Z" fill="#777776"/>
        <path d="M5.50527 15.0037C6.08662 15.0037 6.5579 14.5324 6.5579 13.9511C6.5579 13.3697 6.08662 12.8984 5.50527 12.8984C4.92392 12.8984 4.45264 13.3697 4.45264 13.9511C4.45264 14.5324 4.92392 15.0037 5.50527 15.0037Z" fill="#777776"/>
    </g>
    <defs>
        <clipPath id="clip0_12390_14786">
            <rect width="20" height="20" fill="white" transform="translate(0.5)"/>
        </clipPath>
    </defs>
</svg>
