<svg width="20" height="20" viewBox="0 0 20 20" fill="none" xmlns="http://www.w3.org/2000/svg">
    <g clip-path="url(#clip0_12390_15351)">
        <path d="M20 8.95835V15.2675C20 17.8759 17.8763 20 15.2632 20H12.6316V15.2675C12.6316 13.8198 11.45 12.6407 10 12.6407C8.55 12.6407 7.36842 13.8198 7.36842 15.2675V20H4.73684C2.12368 20 0 17.8785 0 15.2675V8.95835C0 7.51859 0.644737 6.17622 1.76579 5.27078L7.02895 1.03836C8.75 -0.346121 11.2474 -0.346121 12.9684 1.03836L18.2316 5.26815C19.3553 6.17095 19.9974 7.51596 19.9974 8.95572L20 8.95835Z" fill="#FF6A00"/>
    </g>
    <defs>
        <clipPath id="clip0_12390_15351">
            <rect width="20" height="20" fill="white"/>
        </clipPath>
    </defs>
</svg>
