<svg width="21" height="20" viewBox="0 0 21 20" fill="none" xmlns="http://www.w3.org/2000/svg">
    <path d="M18.7342 5.27074L13.4711 1.03756C11.75 -0.347171 9.25263 -0.344538 7.53158 1.03756L2.26579 5.27074C1.14474 6.17372 0.5 7.51633 0.5 8.95635V15.2666C0.5 17.8755 2.62368 20 5.23684 20H7.86842V15.2666C7.86842 13.8161 9.05 12.6393 10.5 12.6393C11.95 12.6393 13.1316 13.8187 13.1316 15.2666V20H15.7632C18.3763 20 20.5 17.8781 20.5 15.2666V8.95635C20.5 7.51633 19.8553 6.17372 18.7342 5.27074ZM19.4474 15.2666C19.4474 17.2963 17.7947 18.947 15.7632 18.947H14.1842V15.2666C14.1842 13.2369 12.5316 11.5863 10.5 11.5863C8.46842 11.5863 6.81579 13.2369 6.81579 15.2666V18.947H5.23684C3.20526 18.947 1.55263 17.2963 1.55263 15.2666V8.95635C1.55263 7.8375 2.05263 6.79237 2.92632 6.08947L8.18947 1.85893C9.52895 0.782204 11.4711 0.782204 12.8105 1.85893L18.0737 6.09211C18.9474 6.795 19.4474 7.8375 19.4474 8.95898V15.2693V15.2666Z" fill="#777776"/>
</svg>
