<svg width="74" height="74" viewBox="0 0 74 74" fill="none" xmlns="http://www.w3.org/2000/svg">
    <rect x="2.5" y="2.5" width="69" height="69" rx="34.5" fill="#FF6A00"/>
    <rect x="2.5" y="2.5" width="69" height="69" rx="34.5" stroke="white" stroke-width="5"/>
    <path d="M21 53V21H24.0909V53H21ZM25.3636 53V21H28.2727V53H25.3636ZM29.7273 53V21H31.1818V53H29.7273ZM34.0909 53V21H37V53H34.0909ZM38.4545 53V21H42.8182V53H38.4545ZM44.2727 53V21H45.7273V53H44.2727ZM48.6364 53V21H53V53H48.6364Z" fill="white"/>
    <path d="M21 53V21H24.0909V53H21ZM25.3636 53V21H28.2727V53H25.3636ZM29.7273 53V21H31.1818V53H29.7273ZM34.0909 53V21H37V53H34.0909ZM38.4545 53V21H42.8182V53H38.4545ZM44.2727 53V21H45.7273V53H44.2727ZM48.6364 53V21H53V53H48.6364Z" fill="white"/>
</svg>
