<svg width="21" height="20" viewBox="0 0 21 20" fill="none" xmlns="http://www.w3.org/2000/svg">
    <g clip-path="url(#clip0_12535_7270)">
        <path d="M19.4378 18.434C18.5719 19.4341 17.3349 20 16.0269 20C15.9874 20 15.9453 20 15.9032 20C7.49447 19.771 0.72801 13.0069 0.501672 4.59791C0.464826 3.23193 1.03857 1.93702 2.07814 1.04479C3.06508 0.194676 4.34942 -0.158003 5.60218 0.0657113C5.7943 0.0999264 5.96011 0.14467 6.10223 0.192045C6.65755 0.376281 7.06285 0.857924 7.15496 1.44485L7.8603 5.9244C7.94978 6.48501 7.73134 7.0535 7.29182 7.40881C7.20234 7.47988 7.11022 7.54831 7.01548 7.61147C6.77071 7.77729 6.6786 8.06153 6.78914 8.31157C7.84451 10.7382 9.76049 12.6543 12.187 13.7097C12.4397 13.8202 12.7239 13.7255 12.8924 13.4754C12.9424 13.4044 12.9924 13.3333 13.045 13.2649C13.3977 12.8148 13.9793 12.5964 14.5504 12.6885L19.1114 13.4465C19.7141 13.5465 20.2036 13.9729 20.3589 14.5335C20.3879 14.6361 20.4142 14.7519 20.4379 14.8835C20.6563 16.1468 20.2931 17.4391 19.4378 18.4287V18.434Z" fill="#FF6A00"/>
    </g>
    <defs>
        <clipPath id="clip0_12535_7270">
            <rect width="20" height="20" fill="white" transform="translate(0.5)"/>
        </clipPath>
    </defs>
</svg>
