<svg width="21" height="20" viewBox="0 0 21 20" fill="none" xmlns="http://www.w3.org/2000/svg">
    <path d="M20.4421 14.8835C20.4185 14.7519 20.3921 14.636 20.3632 14.5334C20.2053 13.9728 19.7158 13.5464 19.1158 13.4464L14.555 12.6884C13.9813 12.591 13.4023 12.8147 13.047 13.2674C12.9944 13.3359 12.9418 13.4043 12.8944 13.4753C12.7233 13.7254 12.4391 13.8175 12.1865 13.7096C9.76003 12.6542 7.84414 10.7381 6.78883 8.31143C6.6783 8.05876 6.77041 7.77714 7.01779 7.60869C7.11253 7.54552 7.20201 7.47709 7.29148 7.40603C7.73098 7.05071 7.94941 6.48221 7.85994 5.9216L7.15463 1.44199C7.06252 0.852426 6.65724 0.373408 6.10195 0.18917C5.95984 0.141794 5.79404 0.099683 5.60193 0.0654674C4.3466 -0.15825 3.06233 0.197066 2.07807 1.04456C1.03854 1.9368 0.464828 3.23173 0.501672 4.59772C0.727999 13.0069 7.49413 19.7736 15.9024 20C15.9419 20 15.984 20 16.0235 20C17.3315 20 18.571 19.4315 19.4368 18.4313C20.2921 17.4417 20.6579 16.1494 20.4369 14.8861L20.4421 14.8835ZM18.6447 17.7391C17.9604 18.5314 16.9788 18.9814 15.9367 18.9419C8.08626 18.7314 1.77016 12.4147 1.55962 4.5635C1.53067 3.51598 1.9728 2.52373 2.77021 1.83678C3.37024 1.32092 4.11238 1.04719 4.87031 1.04719C5.05453 1.04719 5.23875 1.06298 5.4256 1.0972C5.56245 1.12089 5.67825 1.15247 5.77825 1.18405C5.95984 1.24459 6.09142 1.40514 6.123 1.60254L6.82831 6.08215C6.85725 6.27165 6.78356 6.46378 6.63619 6.58485C6.57039 6.63749 6.50197 6.6875 6.43091 6.73751C5.76246 7.19021 5.51771 8.01138 5.82825 8.72991C6.98884 11.4014 9.09947 13.5122 11.7707 14.6729C12.4891 14.9835 13.3076 14.7361 13.7655 14.0675C13.7997 14.0175 13.8366 13.9675 13.876 13.9175C13.9918 13.7675 14.1866 13.6938 14.3813 13.728L18.9421 14.486C19.1421 14.5202 19.3026 14.6492 19.35 14.8203C19.371 14.894 19.3895 14.9756 19.4052 15.0677C19.571 16.0178 19.2947 16.9917 18.6447 17.7444V17.7391Z" fill="#777776"/>
</svg>
