<svg width="20" height="20" viewBox="0 0 20 20" fill="none" xmlns="http://www.w3.org/2000/svg">
    <g clip-path="url(#clip0_12390_15377)">
        <path d="M10 0C4.49 0 0 4.49 0 10C0 15.51 4.49 20 10 20C15.51 20 20 15.51 20 10C20 4.49 15.51 0 10 0ZM14.71 8.71L9.71 13.71C9.51 13.9 9.26 14 9 14C8.74 14 8.49 13.9 8.29 13.71L5.29 10.71C4.9 10.32 4.9 9.68 5.29 9.29C5.68 8.9 6.32 8.9 6.71 9.29L9 11.59L13.29 7.29C13.68 6.9 14.32 6.9 14.71 7.29C15.1 7.68 15.1 8.32 14.71 8.71Z" fill="#FF6A00"/>
    </g>
    <defs>
        <clipPath id="clip0_12390_15377">
            <rect width="20" height="20" fill="white"/>
        </clipPath>
    </defs>
</svg>
