<svg width="20" height="20" viewBox="0 0 20 20" fill="none" xmlns="http://www.w3.org/2000/svg">
    <g clip-path="url(#clip0_12390_15374)">
        <path d="M13.1579 0H6.84211C3.07368 0 0 3.07368 0 6.84211V13.1579C0 16.9263 3.07368 20 6.84211 20H13.1579C16.9263 20 20 16.9263 20 13.1579V6.84211C20 3.07368 16.9263 0 13.1579 0ZM5 15.2632C4.27368 15.2632 3.68421 14.6737 3.68421 13.9474C3.68421 13.2211 4.27368 12.6316 5 12.6316C5.72632 12.6316 6.31579 13.2211 6.31579 13.9474C6.31579 14.6737 5.72632 15.2632 5 15.2632ZM5 11.3158C4.27368 11.3158 3.68421 10.7263 3.68421 10C3.68421 9.27368 4.27368 8.68421 5 8.68421C5.72632 8.68421 6.31579 9.27368 6.31579 10C6.31579 10.7263 5.72632 11.3158 5 11.3158ZM5 7.36842C4.27368 7.36842 3.68421 6.77895 3.68421 6.05263C3.68421 5.32632 4.27368 4.73684 5 4.73684C5.72632 4.73684 6.31579 5.32632 6.31579 6.05263C6.31579 6.77895 5.72632 7.36842 5 7.36842ZM15.2632 15H8.94737C8.36842 15 7.89474 14.5263 7.89474 13.9474C7.89474 13.3684 8.36842 12.8947 8.94737 12.8947H15.2632C15.8421 12.8947 16.3158 13.3684 16.3158 13.9474C16.3158 14.5263 15.8421 15 15.2632 15ZM15.2632 11.0526H8.94737C8.36842 11.0526 7.89474 10.5789 7.89474 10C7.89474 9.42105 8.36842 8.94737 8.94737 8.94737H15.2632C15.8421 8.94737 16.3158 9.42105 16.3158 10C16.3158 10.5789 15.8421 11.0526 15.2632 11.0526ZM15.2632 7.10526H8.94737C8.36842 7.10526 7.89474 6.63158 7.89474 6.05263C7.89474 5.47368 8.36842 5 8.94737 5H15.2632C15.8421 5 16.3158 5.47368 16.3158 6.05263C16.3158 6.63158 15.8421 7.10526 15.2632 7.10526Z" fill="#FF6A00"/>
    </g>
    <defs>
        <clipPath id="clip0_12390_15374">
            <rect width="20" height="20" fill="white"/>
        </clipPath>
    </defs>
</svg>
